<svg version="1.1" xmlns="http://www.w3.org/2000/svg" viewBox="0 0 205.75901957356945 310.0009628525518" width="411.5180391471389" height="620.0019257051036">
  <!-- svg-source:excalidraw -->
  
  <defs>
    <style class="style-fonts">
      @font-face {
        font-family: "Virgil";
        src: url("https://file%2B.vscode-resource.vscode-cdn.net/Users/guttorm/.vscode/extensions/pomdtr.excalidraw-editor-3.7.1/public//dist/excalidraw-assets/Virgil.woff2");
      }
      @font-face {
        font-family: "Cascadia";
        src: url("https://file%2B.vscode-resource.vscode-cdn.net/Users/guttorm/.vscode/extensions/pomdtr.excalidraw-editor-3.7.1/public//dist/excalidraw-assets/Cascadia.woff2");
      }
      @font-face {
        font-family: "Assistant";
        src: url("https://file%2B.vscode-resource.vscode-cdn.net/Users/guttorm/.vscode/extensions/pomdtr.excalidraw-editor-3.7.1/public//dist/excalidraw-assets/Assistant-Regular.woff2");
      }
    </style>
    
  </defs>
  <rect x="0" y="0" width="205.75901957356945" height="310.0009628525518" fill="#f8f9fa"></rect><g stroke-linecap="round"><g transform="translate(164.46491542783798 214.53949456356582) rotate(359.81690555211156 -0.234375 42.73046875)"><path d="M0 0 C-0.08 14.24, -0.39 71.22, -0.47 85.46 M0 0 C-0.08 14.24, -0.39 71.22, -0.47 85.46" stroke="#1e1e1e" stroke-width="1" fill="none"></path></g><g transform="translate(164.46491542783798 214.53949456356582) rotate(359.81690555211156 -0.234375 42.73046875)"><path d="M-10.57 57.21 C-7.53 65.73, -4.48 74.25, -0.47 85.46 M-10.57 57.21 C-8.17 63.93, -5.77 70.65, -0.47 85.46" stroke="#1e1e1e" stroke-width="1" fill="none"></path></g><g transform="translate(164.46491542783798 214.53949456356582) rotate(359.81690555211156 -0.234375 42.73046875)"><path d="M9.95 57.33 C6.81 65.81, 3.67 74.29, -0.47 85.46 M9.95 57.33 C7.47 64.02, 4.99 70.71, -0.47 85.46" stroke="#1e1e1e" stroke-width="1" fill="none"></path></g></g><mask></mask><g stroke-linecap="round"><g transform="translate(10.152586016884072 9.59590961980473) rotate(359.81690555211156 75.12109375 99.212890625)"><path d="M1.06 0.79 C26.12 33.75, 125.01 165.59, 149.98 198.57 M0.16 0.16 C25.07 33.27, 123.85 166.86, 148.89 200.18" stroke="#1e1e1e" stroke-width="2" fill="none"></path></g></g><mask></mask><g stroke-linecap="round"><g transform="translate(11.748500627537965 10.73708352008697) rotate(359.81690555211156 0.33203125 125.8046875)"><path d="M-1.09 -0.11 C-1.23 37.88, -0.91 185.91, -0.54 227.76 C-0.16 269.61, 1.07 246.94, 1.13 250.98" stroke="#1e1e1e" stroke-width="1.5" fill="none" stroke-dasharray="1.5 7"></path></g></g><mask></mask><g transform="translate(106.37129246755563 84.98568778112741) rotate(359.81690555211156 5.989997863769531 12.5)"><text x="0" y="0" font-family="Virgil, Segoe UI Emoji" font-size="20px" fill="#1e1e1e" text-anchor="start" style="white-space: pre;" direction="ltr" dominant-baseline="text-before-edge">L</text></g><g transform="translate(182.79496282285453 239.22194443476502) rotate(359.81690555211156 5.0099945068359375 12.5)"><text x="0" y="0" font-family="Virgil, Segoe UI Emoji" font-size="20px" fill="#1e1e1e" text-anchor="start" style="white-space: pre;" direction="ltr" dominant-baseline="text-before-edge">g</text></g><g transform="translate(183.05911854675958 203.3104487532819) rotate(359.81690555211156 6.329994201660156 12.5)"><text x="0" y="0" font-family="Virgil, Segoe UI Emoji" font-size="20px" fill="#1e1e1e" text-anchor="start" style="white-space: pre;" direction="ltr" dominant-baseline="text-before-edge">m</text></g><g stroke-linecap="round" transform="translate(150.28104108780025 199.28511924196778) rotate(359.81690555211156 12.8017578125 11.673828125)"><path d="M11.78 0.41 C14.33 0.11, 18.05 0.63, 20.34 2.01 C22.63 3.4, 24.8 6.35, 25.53 8.7 C26.27 11.05, 26.02 13.87, 24.75 16.1 C23.49 18.33, 20.47 20.92, 17.93 22.09 C15.38 23.26, 12.02 23.71, 9.49 23.11 C6.96 22.5, 4.31 20.47, 2.75 18.47 C1.18 16.48, 0.03 13.59, 0.11 11.14 C0.18 8.69, 1.18 5.69, 3.19 3.76 C5.21 1.84, 10.6 0.16, 12.2 -0.43 C13.8 -1.01, 12.73 0, 12.79 0.23 M15.31 -0.28 C17.91 0.09, 21.11 2.57, 22.81 4.61 C24.5 6.65, 25.67 9.52, 25.5 11.97 C25.33 14.42, 23.54 17.34, 21.8 19.32 C20.06 21.3, 17.79 23.51, 15.06 23.85 C12.34 24.2, 7.78 22.76, 5.46 21.38 C3.13 19.99, 1.8 17.9, 1.13 15.56 C0.45 13.21, 0.42 9.58, 1.43 7.29 C2.43 5, 4.69 3.07, 7.16 1.81 C9.64 0.55, 14.86 0.02, 16.29 -0.28 C17.72 -0.57, 15.76 -0.18, 15.73 0.06" stroke="none" stroke-width="0" fill="#ffc9c9"></path><path d="M15.38 0.79 C17.89 1.25, 21.29 2.97, 22.93 4.9 C24.57 6.83, 25.36 9.97, 25.21 12.37 C25.07 14.76, 23.91 17.39, 22.04 19.26 C20.17 21.12, 16.69 23.2, 14 23.53 C11.31 23.86, 8.12 22.6, 5.89 21.23 C3.67 19.86, 1.53 17.71, 0.66 15.32 C-0.2 12.92, -0.42 9.13, 0.71 6.85 C1.83 4.57, 4.82 2.73, 7.43 1.65 C10.04 0.57, 14.73 0.39, 16.36 0.36 C17.99 0.33, 17.16 1.25, 17.21 1.47 M9.8 0.73 C12.54 0.05, 16.87 0.06, 19.2 1.18 C21.54 2.3, 22.72 5.2, 23.79 7.43 C24.87 9.65, 26.4 12.29, 25.64 14.54 C24.89 16.8, 21.65 19.56, 19.27 20.95 C16.89 22.34, 13.9 23.07, 11.36 22.89 C8.82 22.71, 5.83 21.63, 4.02 19.86 C2.21 18.09, 0.69 14.8, 0.5 12.26 C0.3 9.73, 1.3 6.72, 2.85 4.66 C4.41 2.59, 8.7 0.54, 9.81 -0.11 C10.92 -0.76, 9.48 0.55, 9.52 0.76" stroke="#e03131" stroke-width="1" fill="none"></path></g><g stroke-linecap="round"><g transform="translate(164.06288596748556 214.00535859379198) rotate(359.81690555211156 -74.78515625 0.69921875)"><path d="M0 0 C-24.93 0.23, -124.64 1.17, -149.57 1.4" stroke="#1e1e1e" stroke-width="1.5" fill="none" stroke-dasharray="1.5 7"></path></g></g><mask></mask><g transform="translate(67.00411520596737 185.06239554855017) rotate(359.81690555211156 5.6199951171875 12.5)"><text x="0" y="0" font-family="Virgil, Segoe UI Emoji" font-size="20px" fill="#1e1e1e" text-anchor="start" style="white-space: pre;" direction="ltr" dominant-baseline="text-before-edge">x</text></g><g transform="translate(26.067523303374514 230.6417294678186) rotate(359.81690555211156 4.689994812011719 12.5)"><text x="0" y="0" font-family="Virgil, Segoe UI Emoji" font-size="20px" fill="#1e1e1e" text-anchor="start" style="white-space: pre;" direction="ltr" dominant-baseline="text-before-edge">y</text></g><g stroke-linecap="round"><g transform="translate(13.453348254596676 86.03687203623105) rotate(359.81690555211156 21.74609375 -3.314453125)"><path d="M0 0 C2.62 0.76, 10.43 4.58, 15.73 4.58 C21.03 4.58, 27.17 2.64, 31.8 0.01 C36.42 -2.62, 41.54 -9.34, 43.49 -11.21 M0 0 C2.62 0.76, 10.43 4.58, 15.73 4.58 C21.03 4.58, 27.17 2.64, 31.8 0.01 C36.42 -2.62, 41.54 -9.34, 43.49 -11.21" stroke="#1e1e1e" stroke-width="2" fill="none"></path></g></g><mask></mask><g transform="translate(18.102109307349338 112.36528735901794) rotate(359.81690555211156 29.296875 12)"><text x="29.296875" y="0" font-family="Cascadia, Segoe UI Emoji" font-size="20px" fill="#1e1e1e" text-anchor="middle" style="white-space: pre;" direction="ltr" dominant-baseline="text-before-edge">theta</text></g></svg>